<svg width="98" height="97" viewBox="0 0 98 97" fill="none" xmlns="http://www.w3.org/2000/svg">
<path d="M96.2565 9.57409C96.225 7.34059 95.2635 5.22259 93.603 3.72859C91.9425 2.23459 89.7345 1.50109 87.5115 1.70359C60.039 4.12609 36.6645 0.0415958 10.8645 0.430096C8.42699 0.484096 6.11099 1.50709 4.42949 3.27259C2.74799 5.03809 1.83749 7.3991 1.90049 9.8366C2.29049 35.2031 -0.49801 61.1696 0.89099 85.6961C1.24949 90.7841 5.33399 94.8131 10.4265 95.1026C37.9035 96.6521 63.6165 96.9176 86.757 95.3381C91.893 94.9511 95.79 90.5486 95.55 85.4036C93.6825 52.0796 97.4625 85.1516 96.2565 9.57409Z" fill="#A855F7"/>
<path d="M23.9297 46L43.9982 71.5C43.9982 71.5 66.5927 44.392 79.9982 32.5105" stroke="white" stroke-width="10" stroke-miterlimit="10" stroke-linecap="round" stroke-linejoin="round"/>
<path d="M2.63672 60.3969L7.13222 60.1389" stroke="white" stroke-width="2" stroke-miterlimit="10" stroke-linecap="round" stroke-linejoin="round"/>
<path d="M2.37109 52.7036L6.8666 52.4456" stroke="white" stroke-width="2" stroke-miterlimit="10" stroke-linecap="round" stroke-linejoin="round"/>
<path d="M76.3789 7.6225L81.5014 2.5" stroke="white" stroke-width="2" stroke-miterlimit="10" stroke-linecap="round" stroke-linejoin="round"/>
<path d="M69.3477 7.4741L74.4702 2.3501" stroke="white" stroke-width="2" stroke-miterlimit="10" stroke-linecap="round" stroke-linejoin="round"/>
<path d="M83 10.8249L90.134 3.69092" stroke="white" stroke-width="2" stroke-miterlimit="10" stroke-linecap="round" stroke-linejoin="round"/>
<path d="M89.0273 14.8029L96.1628 7.66895" stroke="white" stroke-width="2" stroke-miterlimit="10" stroke-linecap="round" stroke-linejoin="round"/>
<path d="M91.6875 20.4009L96.162 16.8369" stroke="white" stroke-width="2" stroke-miterlimit="10" stroke-linecap="round" stroke-linejoin="round"/>
<path d="M92.2461 28.0315L96.7206 24.4675" stroke="white" stroke-width="2" stroke-miterlimit="10" stroke-linecap="round" stroke-linejoin="round"/>
<path d="M3.30859 68.9005L10.1306 67.7515" stroke="white" stroke-width="2" stroke-miterlimit="10" stroke-linecap="round" stroke-linejoin="round"/>
<path d="M3.30859 77.8961L11.5586 76.2566" stroke="white" stroke-width="2" stroke-miterlimit="10" stroke-linecap="round" stroke-linejoin="round"/>
<path d="M3.30859 88.9645L11.5586 85.2505" stroke="white" stroke-width="2" stroke-miterlimit="10" stroke-linecap="round" stroke-linejoin="round"/>
<path d="M12.5 94L20 88" stroke="white" stroke-width="2" stroke-miterlimit="10" stroke-linecap="round" stroke-linejoin="round"/>
<path d="M23.9297 94.0001L28.9982 88.9646" stroke="white" stroke-width="2" stroke-miterlimit="10" stroke-linecap="round" stroke-linejoin="round"/>
<path d="M33.2148 95.839L38.2833 90.8035" stroke="white" stroke-width="2" stroke-miterlimit="10" stroke-linecap="round" stroke-linejoin="round"/>
<path d="M24.4922 21.427C25.3206 21.427 25.9922 20.7554 25.9922 19.927C25.9922 19.0986 25.3206 18.427 24.4922 18.427C23.6638 18.427 22.9922 19.0986 22.9922 19.927C22.9922 20.7554 23.6638 21.427 24.4922 21.427Z" fill="white"/>
<path d="M36.7812 21.427C37.6097 21.427 38.2812 20.7554 38.2812 19.927C38.2812 19.0986 37.6097 18.427 36.7812 18.427C35.9528 18.427 35.2812 19.0986 35.2812 19.927C35.2812 20.7554 35.9528 21.427 36.7812 21.427Z" fill="white"/>
<path d="M31.9922 28.0315C32.8206 28.0315 33.4922 27.3599 33.4922 26.5315C33.4922 25.7031 32.8206 25.0315 31.9922 25.0315C31.1638 25.0315 30.4922 25.7031 30.4922 26.5315C30.4922 27.3599 31.1638 28.0315 31.9922 28.0315Z" fill="white"/>
</svg>
